# AST/ASF file generated using VICON BodyLanguage
# -----------------------------------------------
:version 1.10
:name VICON
:units
  mass 1.0
  length 0.45
  angle deg
:documentation
   .ast/.asf automatically generated from VICON data using
   VICON BodyBuilder and BodyLanguage model FoxedUp or BRILLIANT.MOD
:root
   order TX TY TZ RX RY RZ
   axis XYZ
   position 0 0 0  
   orientation 0 -0 0 
:bonedata
  begin
     id 1 
     name lhipjoint
     direction 0.515797 -0.759363 0.396637 
     length 2.47888 
     axis 0 -0 0  XYZ
  end
  begin
     id 2 
     name lfemur
     direction 0.34202 -0.939693 0  
     length 6.81885  
     axis 0 -0 20  XYZ
    dof rx ry rz
    limits (-160.0 20.0)
           (-70.0 70.0)
           (-60.0 70.0)
  end
  begin
     id 3 
     name ltibia
     direction 0.342037 -0.939687 0   
     length 7.89258   
     axis 0 -0 20   XYZ
    dof rx
    limits (-10.0 170.0)
  end
  begin
     id 4 
     name lfoot
     direction 0.173497 -0.476678 0.861787   
     length 2.51543   
     axis -90 -1.13533e-015 20   XYZ
    dof rx rz
    limits (-45.0 90.0)
           (-70.0 20.0)
  end
  begin
     id 5 
     name ltoes
     direction 1.53564e-011 -4.21897e-011 1   
     length 1.21388   
     axis -90 -1.13533e-015 20   XYZ
    dof rx
    limits (-90.0 20.0)
  end
  begin
     id 6 
     name rhipjoint
     direction -0.489454 -0.772941 0.403729   
     length 2.43534  
     axis 0 -0 0  XYZ 
  end
  begin
     id 7 
     name rfemur
     direction -0.34202 -0.939693 0   
     length 7.10357   
     axis 0 -0 -20   XYZ
    dof rx ry rz
    limits (-160.0 20.0)
           (-70.0 70.0)
           (-70.0 60.0)
  end
  begin
     id 8 
     name rtibia
     direction -0.34202 -0.939693 0   
     length 9.16127   
     axis 0 -0 -20   XYZ
    dof rx
    limits (-10.0 170.0)
 end
 begin
     id 9 
     name rfoot
     direction -0.270974 -0.748671 0.605033   
     length 1.74894  
     axis -90 1.13533e-015 -20   XYZ
    dof rx rz
    limits (-45.0 90.0)
           (-20.0 70.0)
  end
  begin
     id 10 
     name rtoes
     direction -1.53557e-011 -4.21759e-011 1   
     length 0.787585   
     axis -90 1.13533e-015 -20   XYZ
    dof rx
    limits (-90.0 20.0)
  end
  begin
     id 11 
     name lowerback
     direction -0.0140249 0.999561 0.0260968   
     length 2.16963   
     axis 0 -0 0   XYZ
    dof rx ry rz
    limits (-20.0 45.0)
           (-30.0 30.0)
           (-30.0 30.0)
  end
  begin
     id 12 
     name upperback
     direction 0.00860018 0.999959 -0.002711   
     length 2.1726   
     axis 0 -0 0   XYZ
    dof rx ry rz
    limits (-20.0 45.0)
           (-30.0 30.0)
           (-30.0 30.0)
  end
  begin
     id 13 
     name thorax
     direction 0.015211 0.999782 -0.0143191   
     length 2.17061   
     axis 0 -0 0   XYZ
    dof rx ry rz
    limits (-20.0 45.0)
           (-30.0 30.0)
           (-30.0 30.0)
  end
  begin
     id 14 
     name lowerneck
     direction -0.0140143 0.999447 0.030145   
     length 2.26749   
     axis 0 -0 0   XYZ
    dof rx ry rz
    limits (-20.0 45.0)
           (-30.0 30.0)
           (-30.0 30.0)
  end
  begin
     id 15 
     name upperneck
     direction 0.118062 0.961438 -0.248392   
     length 2.22728   
     axis 0 -0 0   XYZ
    dof rx ry rz
    limits (-20.0 45.0)
           (-30.0 30.0)
           (-30.0 30.0)
  end
  begin
     id 16
     name head
     direction 0.0431885 0.9954 -0.085514  
     length 2.28786  
     axis 0 -0 0   XYZ
    dof rx ry rz
    limits (-20.0 45.0)
           (-30.0 30.0)
           (-30.0 30.0)
  end
  begin
     id 17 
     name lclavicle
     direction 0.912126 0.409548 0.0172323  
     length 4.31571  
     axis 0 -0 0   XYZ
    dof ry rz
    limits (-20.0 10.0)
           (0.0 20.0)
  end
  begin
     id 18 
     name lhumerus
     direction 1 -4.48977e-011 1.93091e-027   
     length 5.13658   
     axis 180 -30 -90   XYZ
    dof rx ry rz
    limits (-60.0 90.0)
           (-90.0 90.0)
           (-90.0 90.0)
  end
  begin
     id 19
     name lradius
     direction 1 -4.48916e-011 6.84018e-027   
     length 3.22473   
     axis 180 -30 -90   XYZ
    dof rx
    limits (-10.0 170.0)
  end
  begin
     id 20
     name lwrist
     direction 1 -4.48987e-011 7.01981e-027   
     length 1.61236   
     axis -4.37994e-015 90 90   XYZ
    dof ry
    limits (-180.0 0.0)
 end
  begin
     id 21 
     name lhand
     direction 1 -4.49037e-011 1.40335e-026   
     length 0.936406   
     axis -8.96029e-015 90 90   XYZ
    dof rx rz
    limits (-90.0 90.0)
           (-45.0 45.0)
  end
  begin
     id 22 
     name lfingers
     direction 1 -4.48886e-011 2.8104e-026   
     length 0.754955   
     axis -1.79203e-014 90 90   XYZ
    dof rx
    limits (0.0 90.0)
  end
  begin
     id 23
     name lthumb
     direction 0.707107 -6.34937e-011 0.707107   
     length 1.08397   
     axis -90 45 -4.48555e-014   XYZ
    dof rx rz
    limits (-45.0 45.0)
           (-45.0 45.0)
  end
  begin
     id 24 
     name rclavicle
     direction -0.947962 0.317997 0.0156638   
     length 4.86918  
     axis 0 -0 0   XYZ 
    dof ry rz
    limits (-10.0 20.0)
           (-20.0 0.0)
  end
  begin
     id 25 
     name rhumerus
     direction -1 -4.48951e-011 2.80534e-018  
     length 5.60911   
     axis 180 30 90   XYZ
    dof rx ry rz
    limits (-90.0 60.0)
           (-90.0 90.0)
           (-90.0 90.0)
  end
  begin
     id 26 
     name rradius
     direction -1 -4.4898e-011 2.11315e-027   
     length 3.38704   
     axis 180 30 90   XYZ
    dof rx
    limits (-10.0 170.0)
  end
  begin
     id 27 
     name rwrist
     direction -1 -4.48933e-011 7.02314e-027   
     length 1.69352   
     axis -4.37994e-015 -90 -90   XYZ
    dof ry
    limits (-180.0 0.0)
  end
  begin
     id 28
     name rhand
     direction -1 -4.48937e-011 1.40458e-026   
     length 0.755878   
     axis -8.96029e-015 -90 -90   XYZ
    dof rx rz
    limits (-90.0 90.0)
           (-45.0 45.0)
  end
  begin
     id 29
     name rfingers
     direction -1 -4.4901e-011 2.80737e-026   
     length 0.609409   
     axis -1.79203e-014 -90 -90   XYZ
    dof rx
    limits (0.0 90.0)
  end
  begin
     id 30
     name rthumb
     direction -0.707107 -6.34968e-011 0.707107   
     length 0.874992   
     axis -90 -45 4.48555e-014   XYZ
    dof rx rz
    limits (-45.0 45.0)
           (-45.0 45.0)
  end
:hierarchy
  begin
    root lhipjoint rhipjoint lowerback
    lhipjoint lfemur
    lfemur ltibia
    ltibia lfoot
    lfoot ltoes
    rhipjoint rfemur
    rfemur rtibia
    rtibia rfoot
    rfoot rtoes
    lowerback upperback
    upperback thorax
    thorax lowerneck lclavicle rclavicle
    lowerneck upperneck
    upperneck head
    lclavicle lhumerus
    lhumerus lradius
    lradius lwrist
    lwrist lhand lthumb
    lhand lfingers
    rclavicle rhumerus
    rhumerus rradius
    rradius rwrist
    rwrist rhand rthumb
    rhand rfingers
  end

#!OML:ASF C:\ViconDB\ViconDB\414\Spring2016\041811\Spring2016.ASF
:FULLY-SPECIFIED
:DEGREES
121
root 10.6968 17.1194 5.20143 -175.297 -10.968 -180.307
lowerback -3.57628 -0.657976 -1.81168
upperback -0.670588 -0.865008 1.67052
thorax 1.36864 -0.456113 2.69155
lowerneck -11.2592 -3.06375 -10.0838
upperneck 22.9513 -6.63649 12.6071
head 9.83552 -3.16241 5.28556
rclavicle -3.38182e-014 -7.95139e-016
rhumerus -82.6848 27.6189 -109.6
rradius 92.5114
rwrist 35.5881
rhand -44.5818 2.19677
rfingers 7.12502
rthumb -17.3812 -27.0461
lclavicle -3.38182e-014 -7.95139e-016
lhumerus -88.8299 -39.414 125.62
lradius 71.5795
lwrist -24.7331
lhand -47.5641 2.02253
lfingers 7.12502
lthumb -20.2495 30.987
rfemur 198.879 38.3756 -147.68
rtibia 31.3101
rfoot -42.2838 -65.8169
rtoes -12.1705
lfemur 18.9882 -9.30259 -23.2516
ltibia 10.1729
lfoot -24.5772 -2.84739
ltoes -19.3111
122
root 10.7018 17.1022 5.0309 -175.189 -10.8463 -180.59
lowerback -3.78917 -0.703413 -2.05934
upperback -0.711601 -0.913351 1.65007
thorax 1.45204 -0.482214 2.80559
lowerneck -11.3267 -3.13954 -10.225
upperneck 23.0539 -6.72306 12.5822
head 9.90076 -3.21705 5.29248
rclavicle -1.69837e-014 -2.10712e-014
rhumerus -82.6758 27.5657 -109.572
rradius 92.5581
rwrist 35.5451
rhand -44.5874 2.09677
rfingers 7.12502
rthumb -17.3866 -27.1456
lclavicle -1.69837e-014 -2.10712e-014
lhumerus -88.6911 -39.2703 125.545
lradius 71.5013
lwrist -24.5563
lhand -47.6393 1.47484
lfingers 7.12502
lthumb -20.3218 30.4316
rfemur 197.565 37.8127 -148.457
rtibia 32.2316
rfoot -48.5338 -65.0881
rtoes -18.5849
lfemur 19.972 -9.2203 -23.4531
ltibia 9.26458
lfoot -23.7743 -3.19985
ltoes -19.7361
123
root 10.699 17.0874 4.86226 -175.127 -10.6651 -180.945
lowerback -3.73066 -0.738612 -2.13281
upperback -0.863356 -0.956948 1.51731
thorax 1.2651 -0.500207 2.70952
lowerneck -11.2914 -3.15909 -10.2369
upperneck 23.1997 -6.74481 12.4209
head 9.94308 -3.25138 5.23612
rclavicle -7.01958e-015 1.31198e-014
rhumerus -82.5963 27.2696 -109.5
rradius 92.5998
rwrist 35.2156
rhand -44.2717 3.14047
rfingers 7.12502
rthumb -17.0827 -26.1285
lclavicle -7.01958e-015 1.31198e-014
lhumerus -88.7547 -38.9807 125.398
lradius 71.436
lwrist -24.6912
lhand -47.6313 2.06067
lfingers 7.12502
lthumb -20.3141 31.0183
rfemur 196.13 36.9569 -149.613
rtibia 33.1728
rfoot -52.0385 -64.9905
rtoes -23.6747
lfemur 21.2774 -9.09625 -23.708
ltibia 7.80261
lfoot -22.5777 -3.76534
ltoes -19.7996
124
root 10.703 17.0751 4.69335 -175.091 -10.4266 -181.136
lowerback -3.76126 -0.748879 -2.25973
upperback -0.907529 -0.967229 1.54788
thorax 1.24002 -0.505569 2.81198
lowerneck -11.3547 -3.20097 -10.2685
upperneck 23.2249 -6.71639 12.1747
head 9.95351 -3.25758 5.15552
rclavicle -3.52346e-014 1.59028e-014
rhumerus -82.4516 27.1962 -109.297
rradius 92.6573
rwrist 35.2335
rhand -44.1589 3.40463
rfingers 7.12502
rthumb -16.9742 -25.8737
lclavicle -3.52346e-014 1.59028e-014
lhumerus -88.5006 -38.8299 125.28
lradius 71.2964
lwrist -24.741
lhand -47.629 2.11268
lfingers 7.12502
lthumb -20.3119 31.0705
rfemur 194.369 35.3428 -151.202
rtibia 34.279
rfoot -51.7666 -64.789
rtoes -28.5249
lfemur 23.198 -8.91915 -23.7718
ltibia 5.2241
lfoot -20.8406 -4.0728
ltoes -20.4634
